# xmcd CD database file
#
# Track frame offsets:
#	150
#	22157
#	37097
#	50190
#	63450
#	81115
#	100500
#	120207
#	134975
#	149517
#	163552
#	181830
#	196112
#	211742
#	224977
#	239155
#	254137
#	268750
#	284270
#	302230
#	317227
#
# Disc length: 4416 seconds
#
# Revision: 0
# Processed by: cddbd v1.5.2PL0 Copyright (c) Steve Scherf et al.
# Submitted via: CDex 1.70beta2
#
DISCID=56113e15
DTITLE=Jones Country - Jones Country JCY-017
DYEAR=0000
DGENRE=Country
TTITLE0=Michael Murphy/Wildfire
TTITLE1=Anne Murray/I Don't Think I'm Ready For You
TTITLE2=Anne Murray/I Just Fall IN Love Again
TTITLE3=Anne Murray/Just Another Woman In Love
TTITLE4=Anne Murray and Dave Loggins/Nobody Loves Me Like You Do
TTITLE5=Anne Murray/Now And Forever (You And Me)
TTITLE6=Willie Nelson/The Last Thing I Needed First Thing This Morning
TTITLE7=Willie Nelson and Waylon Jennings/Why Do I Have To Choose
TTITLE8=Nitty Gritty Dirt Band/High Horse
TTITLE9=Oak Ridge Boys/An American Family
TTITLE10=Oak Ridge Boys/Make My Life With You
TTITLE11=Oak Ridge Boys/This Crazy Love
TTITLE12=Schuyler, Knobloch and Overstreet/Baby's Got A New Baby
TTITLE13=Lee Roy Parnell and Brooks and Dunn/Take These Chains From My Heart (Edit without Talk)
TTITLE14=Dolly Parton/Don't Call It Love
TTITLE15=Dolly Parton and Willie Nelson/Everything's Beautiful (In ITs Own Way)
TTITLE16=Elvis Presley/Are You Lonesome Tonight?
TTITLE17=Elvis Presley/Kentucky Rain
TTITLE18=Eddie Rabbitt and Juice Newton/Both To Each Other (Friends and Lovers)
TTITLE19=Eddie Rabbitt/I Wanna Dance With You
TTITLE20=Eddie Rabbitt/She's Comin' Back To Say Goodbye
EXTD=YEAR: 0000
EXTT0=
EXTT1=
EXTT2=
EXTT3=
EXTT4=
EXTT5=
EXTT6=
EXTT7=
EXTT8=
EXTT9=
EXTT10=
EXTT11=
EXTT12=
EXTT13=
EXTT14=
EXTT15=
EXTT16=
EXTT17=
EXTT18=
EXTT19=
EXTT20=
PLAYORDER=
